<?xml version="1.0" encoding="utf-8" standalone="no"?>
<!DOCTYPE svg PUBLIC "-//W3C//DTD SVG 1.1//EN"
  "http://www.w3.org/Graphics/SVG/1.1/DTD/svg11.dtd">
<svg xmlns:xlink="http://www.w3.org/1999/xlink" width="514.175258pt" height="208.8pt" viewBox="0 0 514.175258 208.8" xmlns="http://www.w3.org/2000/svg" version="1.1">
 <metadata>
  <rdf:RDF xmlns:dc="http://purl.org/dc/elements/1.1/" xmlns:cc="http://creativecommons.org/ns#" xmlns:rdf="http://www.w3.org/1999/02/22-rdf-syntax-ns#">
   <cc:Work>
    <dc:type rdf:resource="http://purl.org/dc/dcmitype/StillImage"/>
    <dc:date>2026-09-11T05:05:33.140538</dc:date>
    <dc:format>image/svg+xml</dc:format>
    <dc:creator>
     <cc:Agent>
      <dc:title>Matplotlib v3.11.1, https://matplotlib.org/</dc:title>
     </cc:Agent>
    </dc:creator>
   </cc:Work>
  </rdf:RDF>
 </metadata>
 <defs>
  <style type="text/css">*{stroke-linejoin: round; stroke-linecap: butt}</style>
 </defs>
 <g id="figure_1">
  <g id="patch_1">
   <path d="M 0 208.8 
L 514.175258 208.8 
L 514.175258 0 
L 0 0 
z
" style="fill: #f5f0e8"/>
  </g>
  <g id="axes_1">
   <g id="patch_2">
    <path d="M 40.830915 169.185164 
L 471.199858 169.185164 
L 471.199858 17.0964 
L 40.830915 17.0964 
z
" style="fill: #f5f0e8"/>
   </g>
   <g id="matplotlib.axis_1">
    <g id="xtick_1">
     <g id="line2d_1"/>
     <g id="text_1">
      <!-- 0 -->
      <g style="fill: #6e625a" transform="translate(38.581623 179.092352) scale(0.0713 -0.0713)">
       <defs>
        <path id="Inter-Regular-53d" d="M 2019 -63 
Q 1500 -63 1134 218 
Q 769 500 575 1033 
Q 381 1566 381 2325 
Q 381 3081 576 3615 
Q 772 4150 1137 4434 
Q 1503 4719 2019 4719 
Q 2534 4719 2901 4434 
Q 3269 4150 3462 3615 
Q 3656 3081 3656 2325 
Q 3656 1569 3464 1034 
Q 3272 500 2906 218 
Q 2541 -63 2019 -63 
z
M 2019 456 
Q 2359 456 2596 678 
Q 2834 900 2959 1317 
Q 3084 1734 3084 2325 
Q 3084 2919 2959 3339 
Q 2834 3759 2596 3981 
Q 2359 4203 2019 4203 
Q 1678 4203 1440 3979 
Q 1203 3756 1078 3337 
Q 953 2919 953 2325 
Q 953 1734 1078 1317 
Q 1203 900 1440 678 
Q 1678 456 2019 456 
z
" transform="scale(0.015625)"/>
       </defs>
       <use xlink:href="#Inter-Regular-53d"/>
      </g>
     </g>
    </g>
    <g id="xtick_2">
     <g id="line2d_2"/>
     <g id="text_2">
      <!-- 60.000 -->
      <g style="fill: #6e625a" transform="translate(106.838217 179.092352) scale(0.0713 -0.0713)">
       <defs>
        <path id="Inter-Regular-545" d="M 2019 -63 
Q 1728 -63 1437 43 
Q 1147 150 908 400 
Q 669 650 525 1078 
Q 381 1506 381 2150 
Q 381 2766 498 3242 
Q 616 3719 839 4048 
Q 1063 4378 1378 4548 
Q 1694 4719 2091 4719 
Q 2481 4719 2790 4562 
Q 3100 4406 3297 4128 
Q 3494 3850 3550 3484 
L 2969 3484 
Q 2891 3788 2672 3991 
Q 2453 4194 2091 4194 
Q 1734 4194 1476 3984 
Q 1219 3775 1081 3379 
Q 944 2984 944 2425 
L 981 2425 
Q 1106 2619 1281 2758 
Q 1456 2897 1672 2970 
Q 1888 3044 2128 3044 
Q 2528 3044 2859 2847 
Q 3191 2650 3389 2301 
Q 3588 1953 3588 1503 
Q 3588 1069 3394 714 
Q 3200 359 2847 148 
Q 2494 -63 2019 -63 
z
M 2019 459 
Q 2300 459 2525 600 
Q 2750 741 2881 977 
Q 3013 1213 3013 1503 
Q 3013 1788 2886 2020 
Q 2759 2253 2537 2390 
Q 2316 2528 2034 2528 
Q 1822 2528 1639 2445 
Q 1456 2363 1318 2217 
Q 1181 2072 1104 1886 
Q 1028 1700 1028 1497 
Q 1028 1222 1156 986 
Q 1284 750 1509 604 
Q 1734 459 2019 459 
z
" transform="scale(0.015625)"/>
        <path id="Inter-Regular-5de" d="M 922 -41 
Q 747 -41 623 82 
Q 500 206 500 381 
Q 500 556 623 679 
Q 747 803 922 803 
Q 1097 803 1220 679 
Q 1344 556 1344 381 
Q 1344 206 1220 82 
Q 1097 -41 922 -41 
z
" transform="scale(0.015625)"/>
       </defs>
       <use xlink:href="#Inter-Regular-545"/>
       <use xlink:href="#Inter-Regular-53d" transform="translate(62.015625 0)"/>
       <use xlink:href="#Inter-Regular-5de" transform="translate(122.578125 0)"/>
       <use xlink:href="#Inter-Regular-53d" transform="translate(148.859375 0)"/>
       <use xlink:href="#Inter-Regular-53d" transform="translate(211.953125 0)"/>
       <use xlink:href="#Inter-Regular-53d" transform="translate(275.046875 0)"/>
      </g>
     </g>
    </g>
    <g id="xtick_3">
     <g id="line2d_3"/>
     <g id="text_3">
      <!-- 120.000 -->
      <g style="fill: #6e625a" transform="translate(183.487043 179.092352) scale(0.0713 -0.0713)">
       <defs>
        <path id="Inter-Regular-53e" d="M 2041 4656 
L 2041 0 
L 1456 0 
L 1456 4106 
L 1425 4106 
L 300 3272 
L 300 3909 
L 1313 4656 
L 2041 4656 
z
" transform="scale(0.015625)"/>
        <path id="Inter-Regular-53f" d="M 481 0 
L 481 428 
L 2028 2106 
Q 2288 2388 2459 2600 
Q 2631 2813 2718 3005 
Q 2806 3197 2806 3413 
Q 2806 3656 2690 3834 
Q 2575 4013 2378 4108 
Q 2181 4203 1931 4203 
Q 1666 4203 1470 4095 
Q 1275 3988 1169 3792 
Q 1063 3597 1063 3334 
L 494 3334 
Q 494 3747 684 4059 
Q 875 4372 1203 4545 
Q 1531 4719 1947 4719 
Q 2363 4719 2683 4545 
Q 3003 4372 3186 4078 
Q 3369 3784 3369 3419 
Q 3369 3166 3278 2927 
Q 3188 2688 2959 2384 
Q 2731 2081 2319 1644 
L 1300 559 
L 1300 522 
L 3447 522 
L 3447 0 
L 481 0 
z
" transform="scale(0.015625)"/>
       </defs>
       <use xlink:href="#Inter-Regular-53e"/>
       <use xlink:href="#Inter-Regular-53f" transform="translate(40.671875 0)"/>
       <use xlink:href="#Inter-Regular-53d" transform="translate(101.65625 0)"/>
       <use xlink:href="#Inter-Regular-5de" transform="translate(162.21875 0)"/>
       <use xlink:href="#Inter-Regular-53d" transform="translate(188.5 0)"/>
       <use xlink:href="#Inter-Regular-53d" transform="translate(251.59375 0)"/>
       <use xlink:href="#Inter-Regular-53d" transform="translate(314.6875 0)"/>
      </g>
     </g>
    </g>
    <g id="xtick_4">
     <g id="line2d_4"/>
     <g id="text_4">
      <!-- 180.000 -->
      <g style="fill: #6e625a" transform="translate(261.517864 179.092352) scale(0.0713 -0.0713)">
       <defs>
        <path id="Inter-Regular-547" d="M 1978 -63 
Q 1506 -63 1145 104 
Q 784 272 582 565 
Q 381 859 381 1238 
Q 381 1531 500 1782 
Q 619 2034 825 2203 
Q 1031 2372 1291 2419 
L 1291 2444 
Q 950 2531 750 2822 
Q 550 3113 550 3481 
Q 550 3838 734 4117 
Q 919 4397 1241 4558 
Q 1563 4719 1978 4719 
Q 2388 4719 2709 4558 
Q 3031 4397 3217 4117 
Q 3403 3838 3403 3481 
Q 3403 3113 3201 2822 
Q 3000 2531 2669 2444 
L 2669 2419 
Q 2922 2372 3128 2203 
Q 3334 2034 3456 1782 
Q 3578 1531 3578 1238 
Q 3578 859 3373 565 
Q 3169 272 2808 104 
Q 2447 -63 1978 -63 
z
M 1978 453 
Q 2288 453 2513 554 
Q 2738 656 2861 839 
Q 2984 1022 2984 1269 
Q 2984 1528 2853 1726 
Q 2722 1925 2494 2039 
Q 2266 2153 1978 2153 
Q 1684 2153 1456 2039 
Q 1228 1925 1097 1726 
Q 966 1528 966 1269 
Q 966 1022 1087 839 
Q 1209 656 1437 554 
Q 1666 453 1978 453 
z
M 1978 2650 
Q 2225 2650 2415 2748 
Q 2606 2847 2717 3025 
Q 2828 3203 2828 3438 
Q 2828 3672 2722 3844 
Q 2616 4016 2423 4111 
Q 2231 4206 1978 4206 
Q 1722 4206 1530 4111 
Q 1338 4016 1231 3844 
Q 1125 3672 1125 3438 
Q 1125 3203 1233 3025 
Q 1341 2847 1534 2748 
Q 1728 2650 1978 2650 
z
" transform="scale(0.015625)"/>
       </defs>
       <use xlink:href="#Inter-Regular-53e"/>
       <use xlink:href="#Inter-Regular-547" transform="translate(40.671875 0)"/>
       <use xlink:href="#Inter-Regular-53d" transform="translate(102.53125 0)"/>
       <use xlink:href="#Inter-Regular-5de" transform="translate(163.09375 0)"/>
       <use xlink:href="#Inter-Regular-53d" transform="translate(189.375 0)"/>
       <use xlink:href="#Inter-Regular-53d" transform="translate(252.46875 0)"/>
       <use xlink:href="#Inter-Regular-53d" transform="translate(315.5625 0)"/>
      </g>
     </g>
    </g>
    <g id="xtick_5">
     <g id="line2d_5"/>
     <g id="text_5">
      <!-- 240.000 -->
      <g style="fill: #6e625a" transform="translate(338.813961 179.092352) scale(0.0713 -0.0713)">
       <defs>
        <path id="Inter-Regular-542" d="M 375 947 
L 375 1431 
L 2413 4656 
L 2772 4656 
L 2772 3913 
L 2531 3913 
L 1009 1506 
L 1009 1469 
L 3766 1469 
L 3766 947 
L 375 947 
z
M 2566 0 
L 2566 1091 
L 2569 1319 
L 2569 4656 
L 3134 4656 
L 3134 0 
L 2566 0 
z
" transform="scale(0.015625)"/>
       </defs>
       <use xlink:href="#Inter-Regular-53f"/>
       <use xlink:href="#Inter-Regular-542" transform="translate(59.421875 0)"/>
       <use xlink:href="#Inter-Regular-53d" transform="translate(124.015625 0)"/>
       <use xlink:href="#Inter-Regular-5de" transform="translate(184.578125 0)"/>
       <use xlink:href="#Inter-Regular-53d" transform="translate(210.859375 0)"/>
       <use xlink:href="#Inter-Regular-53d" transform="translate(273.953125 0)"/>
       <use xlink:href="#Inter-Regular-53d" transform="translate(337.046875 0)"/>
      </g>
     </g>
    </g>
    <g id="xtick_6">
     <g id="line2d_6"/>
     <g id="text_6">
      <!-- 300.000 -->
      <g style="fill: #6e625a" transform="translate(416.845896 179.092352) scale(0.0713 -0.0713)">
       <defs>
        <path id="Inter-Regular-541" d="M 1984 -63 
Q 1528 -63 1175 93 
Q 822 250 614 528 
Q 406 806 391 1175 
L 991 1175 
Q 1009 953 1142 792 
Q 1275 631 1492 545 
Q 1709 459 1975 459 
Q 2269 459 2495 561 
Q 2722 663 2853 847 
Q 2984 1031 2984 1272 
Q 2984 1525 2857 1717 
Q 2731 1909 2490 2018 
Q 2250 2128 1903 2128 
L 1525 2128 
L 1525 2644 
L 1903 2644 
Q 2175 2644 2383 2742 
Q 2591 2841 2706 3019 
Q 2822 3197 2822 3438 
Q 2822 3669 2720 3841 
Q 2619 4013 2431 4108 
Q 2244 4203 1991 4203 
Q 1753 4203 1545 4117 
Q 1338 4031 1205 3872 
Q 1072 3713 1063 3484 
L 491 3484 
Q 503 3850 709 4128 
Q 916 4406 1255 4562 
Q 1594 4719 2003 4719 
Q 2438 4719 2752 4544 
Q 3066 4369 3234 4084 
Q 3403 3800 3403 3469 
Q 3403 3075 3195 2800 
Q 2988 2525 2631 2419 
L 2631 2381 
Q 2928 2334 3139 2181 
Q 3350 2028 3461 1793 
Q 3572 1559 3572 1266 
Q 3572 884 3365 584 
Q 3159 284 2800 110 
Q 2441 -63 1984 -63 
z
" transform="scale(0.015625)"/>
       </defs>
       <use xlink:href="#Inter-Regular-541"/>
       <use xlink:href="#Inter-Regular-53d" transform="translate(61.765625 0)"/>
       <use xlink:href="#Inter-Regular-53d" transform="translate(124.859375 0)"/>
       <use xlink:href="#Inter-Regular-5de" transform="translate(185.421875 0)"/>
       <use xlink:href="#Inter-Regular-53d" transform="translate(211.703125 0)"/>
       <use xlink:href="#Inter-Regular-53d" transform="translate(274.796875 0)"/>
       <use xlink:href="#Inter-Regular-53d" transform="translate(337.890625 0)"/>
      </g>
     </g>
    </g>
    <g id="text_7">
     <!-- MILLONES DE PESOS DEVENGADOS EN 2025 -->
     <g style="fill: #b4863a" transform="translate(181.830574 191.399686) scale(0.068 -0.068)">
      <defs>
       <path id="Inter-Regular-124" d="M 516 0 
L 516 4656 
L 1566 4656 
L 2581 1984 
Q 2625 1866 2679 1684 
Q 2734 1503 2793 1290 
Q 2853 1078 2906 872 
Q 2959 666 3000 500 
L 2850 500 
Q 2891 656 2944 861 
Q 2997 1066 3056 1278 
Q 3116 1491 3172 1678 
Q 3228 1866 3272 1984 
L 4272 4656 
L 5328 4656 
L 5328 0 
L 4619 0 
L 4619 2506 
Q 4619 2650 4622 2850 
Q 4625 3050 4629 3273 
Q 4634 3497 4639 3725 
Q 4644 3953 4647 4163 
L 4700 4163 
Q 4638 3934 4564 3692 
Q 4491 3450 4420 3225 
Q 4350 3000 4286 2814 
Q 4222 2628 4178 2506 
L 3225 0 
L 2616 0 
L 1650 2506 
Q 1603 2625 1542 2808 
Q 1481 2991 1409 3214 
Q 1338 3438 1263 3680 
Q 1188 3922 1113 4163 
L 1175 4163 
Q 1181 3972 1186 3748 
Q 1191 3525 1195 3297 
Q 1200 3069 1204 2864 
Q 1209 2659 1209 2506 
L 1209 0 
L 516 0 
z
" transform="scale(0.015625)"/>
       <path id="Inter-Regular-c5" d="M 1228 4656 
L 1228 0 
L 516 0 
L 516 4656 
L 1228 4656 
z
" transform="scale(0.015625)"/>
       <path id="Inter-Regular-119" d="M 516 0 
L 516 4656 
L 1228 4656 
L 1228 613 
L 3338 613 
L 3338 0 
L 516 0 
z
" transform="scale(0.015625)"/>
       <path id="Inter-Regular-141" d="M 2456 -63 
Q 1853 -63 1376 223 
Q 900 509 626 1045 
Q 353 1581 353 2325 
Q 353 3072 626 3608 
Q 900 4144 1376 4431 
Q 1853 4719 2456 4719 
Q 3059 4719 3532 4431 
Q 4006 4144 4279 3608 
Q 4553 3072 4553 2325 
Q 4553 1581 4279 1045 
Q 4006 509 3532 223 
Q 3059 -63 2456 -63 
z
M 2456 588 
Q 2853 588 3167 786 
Q 3481 984 3664 1373 
Q 3847 1763 3847 2325 
Q 3847 2894 3664 3283 
Q 3481 3672 3167 3870 
Q 2853 4069 2456 4069 
Q 2056 4069 1740 3869 
Q 1425 3669 1242 3280 
Q 1059 2891 1059 2325 
Q 1059 1763 1242 1375 
Q 1425 988 1740 788 
Q 2056 588 2456 588 
z
" transform="scale(0.015625)"/>
       <path id="Inter-Regular-12c" d="M 516 0 
L 516 4656 
L 1338 4656 
L 3091 1884 
Q 3178 1747 3287 1556 
Q 3397 1366 3519 1127 
Q 3641 888 3759 606 
L 3672 606 
Q 3644 872 3630 1133 
Q 3616 1394 3609 1622 
Q 3603 1850 3603 2006 
L 3603 4656 
L 4325 4656 
L 4325 0 
L 3500 0 
L 1928 2478 
Q 1803 2681 1683 2887 
Q 1563 3094 1417 3364 
Q 1272 3634 1063 4022 
L 1175 4022 
Q 1191 3678 1206 3379 
Q 1222 3081 1230 2851 
Q 1238 2622 1238 2484 
L 1238 0 
L 516 0 
z
" transform="scale(0.015625)"/>
       <path id="Inter-Regular-5f" d="M 516 0 
L 516 4656 
L 3447 4656 
L 3447 4044 
L 1228 4044 
L 1228 2656 
L 3288 2656 
L 3288 2047 
L 1228 2047 
L 1228 613 
L 3466 613 
L 3466 0 
L 516 0 
z
" transform="scale(0.015625)"/>
       <path id="Inter-Regular-18d" d="M 2078 -78 
Q 1556 -78 1172 87 
Q 788 253 570 561 
Q 353 869 331 1294 
L 1047 1294 
Q 1069 1041 1211 875 
Q 1353 709 1581 628 
Q 1809 547 2075 547 
Q 2372 547 2601 639 
Q 2831 731 2965 901 
Q 3100 1072 3100 1297 
Q 3100 1500 2983 1629 
Q 2866 1759 2667 1845 
Q 2469 1931 2216 1997 
L 1672 2147 
Q 1100 2300 779 2600 
Q 459 2900 459 3378 
Q 459 3781 676 4082 
Q 894 4384 1267 4551 
Q 1641 4719 2109 4719 
Q 2588 4719 2952 4551 
Q 3316 4384 3523 4093 
Q 3731 3803 3741 3431 
L 3047 3431 
Q 3013 3750 2752 3925 
Q 2491 4100 2094 4100 
Q 1813 4100 1605 4012 
Q 1397 3925 1283 3770 
Q 1169 3616 1169 3419 
Q 1169 3197 1305 3061 
Q 1441 2925 1636 2845 
Q 1831 2766 2009 2719 
L 2463 2600 
Q 2684 2544 2920 2448 
Q 3156 2353 3356 2201 
Q 3556 2050 3679 1826 
Q 3803 1603 3803 1288 
Q 3803 894 3600 584 
Q 3397 275 3011 98 
Q 2625 -78 2078 -78 
z
" transform="scale(0.015625)"/>
       <path id="Inter-Regular-6f1" transform="scale(0.015625)"/>
       <path id="Inter-Regular-54" d="M 2028 0 
L 878 0 
L 878 625 
L 1991 625 
Q 2519 625 2869 822 
Q 3219 1019 3394 1401 
Q 3569 1784 3569 2334 
Q 3569 2881 3395 3259 
Q 3222 3638 2880 3834 
Q 2538 4031 2028 4031 
L 853 4031 
L 853 4656 
L 2075 4656 
Q 2763 4656 3253 4378 
Q 3744 4100 4006 3579 
Q 4269 3059 4269 2334 
Q 4269 1606 4005 1084 
Q 3741 563 3239 281 
Q 2738 0 2028 0 
z
M 1228 4656 
L 1228 0 
L 516 0 
L 516 4656 
L 1228 4656 
z
" transform="scale(0.015625)"/>
       <path id="Inter-Regular-177" d="M 516 0 
L 516 4656 
L 2184 4656 
Q 2722 4656 3081 4456 
Q 3441 4256 3619 3915 
Q 3797 3575 3797 3144 
Q 3797 2713 3617 2370 
Q 3438 2028 3078 1829 
Q 2719 1631 2178 1631 
L 1038 1631 
L 1038 2234 
L 2109 2234 
Q 2453 2234 2665 2353 
Q 2878 2472 2976 2678 
Q 3075 2884 3075 3144 
Q 3075 3406 2976 3611 
Q 2878 3816 2664 3931 
Q 2450 4047 2103 4047 
L 1228 4047 
L 1228 0 
L 516 0 
z
" transform="scale(0.015625)"/>
       <path id="Inter-Regular-1c8" d="M 1844 0 
L 159 4656 
L 928 4656 
L 1834 2066 
Q 1934 1766 2064 1331 
Q 2194 897 2359 306 
L 2213 306 
Q 2375 909 2501 1337 
Q 2628 1766 2725 2066 
L 3606 4656 
L 4378 4656 
L 2716 0 
L 1844 0 
z
" transform="scale(0.015625)"/>
       <path id="Inter-Regular-8d" d="M 2472 -63 
Q 1841 -63 1364 228 
Q 888 519 620 1055 
Q 353 1591 353 2325 
Q 353 3069 623 3605 
Q 894 4141 1366 4430 
Q 1838 4719 2441 4719 
Q 2816 4719 3142 4608 
Q 3469 4497 3726 4292 
Q 3984 4088 4151 3805 
Q 4319 3522 4375 3184 
L 3644 3184 
Q 3581 3388 3472 3552 
Q 3363 3716 3211 3831 
Q 3059 3947 2867 4008 
Q 2675 4069 2447 4069 
Q 2053 4069 1739 3869 
Q 1425 3669 1242 3280 
Q 1059 2891 1059 2328 
Q 1059 1766 1242 1378 
Q 1425 991 1744 789 
Q 2063 588 2475 588 
Q 2850 588 3129 739 
Q 3409 891 3564 1170 
Q 3719 1450 3719 1831 
L 3903 1800 
L 2578 1800 
L 2578 2388 
L 4416 2388 
L 4416 1853 
Q 4416 1266 4164 836 
Q 3913 406 3475 171 
Q 3038 -63 2472 -63 
z
" transform="scale(0.015625)"/>
       <path id="Inter-Regular-2" d="M 159 0 
L 1816 4656 
L 2691 4656 
L 4378 0 
L 3606 0 
L 2700 2591 
Q 2594 2906 2467 3334 
Q 2341 3763 2175 4363 
L 2319 4363 
Q 2159 3756 2032 3323 
Q 1906 2891 1809 2591 
L 931 0 
L 159 0 
z
M 1056 1228 
L 1056 1822 
L 3478 1822 
L 3478 1228 
L 1056 1228 
z
" transform="scale(0.015625)"/>
       <path id="Inter-Regular-543" d="M 1897 -63 
Q 1463 -63 1122 103 
Q 781 269 579 559 
Q 378 850 363 1219 
L 1056 1219 
Q 1072 1022 1187 867 
Q 1303 713 1489 625 
Q 1675 538 1897 538 
Q 2163 538 2369 659 
Q 2575 781 2692 998 
Q 2809 1216 2809 1494 
Q 2809 1775 2687 1998 
Q 2566 2222 2353 2347 
Q 2141 2472 1866 2472 
Q 1653 2472 1440 2398 
Q 1228 2325 1100 2209 
L 444 2303 
L 703 4656 
L 3275 4656 
L 3275 4047 
L 1300 4047 
L 1153 2747 
L 1178 2747 
Q 1316 2881 1544 2968 
Q 1772 3056 2031 3056 
Q 2350 3056 2619 2942 
Q 2888 2828 3086 2618 
Q 3284 2409 3395 2126 
Q 3506 1844 3506 1506 
Q 3506 1053 3300 698 
Q 3094 344 2730 140 
Q 2366 -63 1897 -63 
z
" transform="scale(0.015625)"/>
      </defs>
      <use xlink:href="#Inter-Regular-124"/>
      <use xlink:href="#Inter-Regular-c5" transform="translate(91.265625 0)"/>
      <use xlink:href="#Inter-Regular-119" transform="translate(118.515625 0)"/>
      <use xlink:href="#Inter-Regular-119" transform="translate(175.0625 0)"/>
      <use xlink:href="#Inter-Regular-141" transform="translate(228.78125 0)"/>
      <use xlink:href="#Inter-Regular-12c" transform="translate(305.4375 0)"/>
      <use xlink:href="#Inter-Regular-5f" transform="translate(381.078125 0)"/>
      <use xlink:href="#Inter-Regular-18d" transform="translate(441.375 0)"/>
      <use xlink:href="#Inter-Regular-6f1" transform="translate(505.96875 0)"/>
      <use xlink:href="#Inter-Regular-54" transform="translate(532.625 0)"/>
      <use xlink:href="#Inter-Regular-5f" transform="translate(604.796875 0)"/>
      <use xlink:href="#Inter-Regular-6f1" transform="translate(665.09375 0)"/>
      <use xlink:href="#Inter-Regular-177" transform="translate(691.75 0)"/>
      <use xlink:href="#Inter-Regular-5f" transform="translate(755.90625 0)"/>
      <use xlink:href="#Inter-Regular-18d" transform="translate(816.203125 0)"/>
      <use xlink:href="#Inter-Regular-141" transform="translate(880.796875 0)"/>
      <use xlink:href="#Inter-Regular-18d" transform="translate(957.453125 0)"/>
      <use xlink:href="#Inter-Regular-6f1" transform="translate(1022.046875 0)"/>
      <use xlink:href="#Inter-Regular-54" transform="translate(1048.703125 0)"/>
      <use xlink:href="#Inter-Regular-5f" transform="translate(1120.875 0)"/>
      <use xlink:href="#Inter-Regular-1c8" transform="translate(1181.171875 0)"/>
      <use xlink:href="#Inter-Regular-5f" transform="translate(1252.078125 0)"/>
      <use xlink:href="#Inter-Regular-12c" transform="translate(1312.375 0)"/>
      <use xlink:href="#Inter-Regular-8d" transform="translate(1388.015625 0)"/>
      <use xlink:href="#Inter-Regular-2" transform="translate(1460.234375 0)"/>
      <use xlink:href="#Inter-Regular-54" transform="translate(1531.140625 0)"/>
      <use xlink:href="#Inter-Regular-141" transform="translate(1603.3125 0)"/>
      <use xlink:href="#Inter-Regular-18d" transform="translate(1679.96875 0)"/>
      <use xlink:href="#Inter-Regular-6f1" transform="translate(1744.5625 0)"/>
      <use xlink:href="#Inter-Regular-5f" transform="translate(1771.21875 0)"/>
      <use xlink:href="#Inter-Regular-12c" transform="translate(1831.515625 0)"/>
      <use xlink:href="#Inter-Regular-6f1" transform="translate(1907.15625 0)"/>
      <use xlink:href="#Inter-Regular-53f" transform="translate(1933.8125 0)"/>
      <use xlink:href="#Inter-Regular-53d" transform="translate(1995.4375 0)"/>
      <use xlink:href="#Inter-Regular-53f" transform="translate(2059.984375 0)"/>
      <use xlink:href="#Inter-Regular-543" transform="translate(2121.609375 0)"/>
     </g>
    </g>
   </g>
   <g id="matplotlib.axis_2"/>
   <g id="line2d_7">
    <path d="M 349.147713 92.711153 
L 349.147713 158.014803 
" clip-path="url(#p4db67dd0c6)" style="fill: none; stroke-dasharray: 1.6,1.6; stroke-dashoffset: 0; stroke: #5e7157; stroke-width: 0.8"/>
   </g>
   <g id="patch_3">
    <path d="M 40.830915 169.185164 
L 471.199858 169.185164 
" style="fill: none; stroke: #2a211c; stroke-width: 0.7; stroke-linejoin: miter; stroke-linecap: square"/>
   </g>
   <g id="patch_4">
    <path d="M 40.830915 91.851894 
L 205.39547 91.851894 
L 205.39547 66.074138 
L 40.830915 66.074138 
z
" clip-path="url(#p4db67dd0c6)" style="fill: #2a211c"/>
   </g>
   <g id="text_8">
    <!-- Personal y deuda -->
    <g style="fill: #2a211c" transform="translate(42.830915 35.273157) scale(0.064 -0.064)">
     <defs>
      <path id="Inter-Regular-266" d="M 1978 -69 
Q 1444 -69 1056 150 
Q 669 369 461 772 
Q 253 1175 253 1728 
Q 253 2269 459 2675 
Q 666 3081 1044 3309 
Q 1422 3538 1931 3538 
Q 2275 3538 2572 3428 
Q 2869 3319 3094 3098 
Q 3319 2878 3445 2547 
Q 3572 2216 3572 1766 
L 3572 1503 
L 638 1503 
L 638 2091 
L 3113 2091 
L 2675 1934 
Q 2675 2206 2592 2407 
Q 2509 2609 2345 2720 
Q 2181 2831 1938 2831 
Q 1697 2831 1526 2718 
Q 1356 2606 1268 2414 
Q 1181 2222 1181 1975 
L 1181 1559 
Q 1181 1256 1282 1050 
Q 1384 844 1567 741 
Q 1750 638 1994 638 
Q 2159 638 2293 684 
Q 2428 731 2523 823 
Q 2619 916 2669 1050 
L 3519 891 
Q 3434 603 3225 386 
Q 3016 169 2702 50 
Q 2388 -69 1978 -69 
z
" transform="scale(0.015625)"/>
      <path id="Inter-Regular-354" d="M 400 0 
L 400 3494 
L 1306 3494 
L 1306 2884 
L 1344 2884 
Q 1441 3209 1667 3375 
Q 1894 3541 2188 3541 
Q 2259 3541 2342 3533 
Q 2425 3525 2491 3509 
L 2491 2672 
Q 2428 2694 2309 2706 
Q 2191 2719 2084 2719 
Q 1872 2719 1700 2626 
Q 1528 2534 1433 2370 
Q 1338 2206 1338 1988 
L 1338 0 
L 400 0 
z
" transform="scale(0.015625)"/>
      <path id="Inter-Regular-367" d="M 1788 -69 
Q 1366 -69 1041 51 
Q 716 172 509 401 
Q 303 631 244 956 
L 1116 1106 
Q 1184 863 1356 741 
Q 1528 619 1816 619 
Q 2081 619 2237 720 
Q 2394 822 2394 978 
Q 2394 1116 2283 1203 
Q 2172 1291 1944 1338 
L 1341 1463 
Q 834 1566 584 1814 
Q 334 2063 334 2453 
Q 334 2791 518 3033 
Q 703 3275 1031 3406 
Q 1359 3538 1803 3538 
Q 2216 3538 2519 3423 
Q 2822 3309 3009 3100 
Q 3197 2891 3259 2606 
L 2428 2459 
Q 2375 2638 2223 2752 
Q 2072 2866 1816 2866 
Q 1584 2866 1428 2769 
Q 1272 2672 1272 2513 
Q 1272 2378 1373 2287 
Q 1475 2197 1722 2147 
L 2350 2022 
Q 2856 1919 3103 1686 
Q 3350 1453 3350 1078 
Q 3350 734 3150 476 
Q 2950 219 2598 75 
Q 2247 -69 1788 -69 
z
" transform="scale(0.015625)"/>
      <path id="Inter-Regular-316" d="M 1963 -69 
Q 1438 -69 1053 157 
Q 669 384 461 789 
Q 253 1194 253 1731 
Q 253 2275 461 2679 
Q 669 3084 1053 3311 
Q 1438 3538 1963 3538 
Q 2491 3538 2873 3311 
Q 3256 3084 3464 2679 
Q 3672 2275 3672 1731 
Q 3672 1194 3464 789 
Q 3256 384 2873 157 
Q 2491 -69 1963 -69 
z
M 1963 669 
Q 2213 669 2381 808 
Q 2550 947 2634 1189 
Q 2719 1431 2719 1734 
Q 2719 2044 2634 2284 
Q 2550 2525 2381 2662 
Q 2213 2800 1963 2800 
Q 1713 2800 1545 2662 
Q 1378 2525 1293 2284 
Q 1209 2044 1209 1734 
Q 1209 1431 1293 1189 
Q 1378 947 1545 808 
Q 1713 669 1963 669 
z
" transform="scale(0.015625)"/>
      <path id="Inter-Regular-305" d="M 1338 2022 
L 1338 0 
L 400 0 
L 400 3494 
L 1284 3494 
L 1300 2622 
L 1244 2622 
Q 1381 3059 1661 3298 
Q 1941 3538 2384 3538 
Q 2747 3538 3015 3380 
Q 3284 3222 3434 2926 
Q 3584 2631 3584 2222 
L 3584 0 
L 2647 0 
L 2647 2059 
Q 2647 2384 2480 2568 
Q 2313 2753 2016 2753 
Q 1819 2753 1664 2667 
Q 1509 2581 1423 2418 
Q 1338 2256 1338 2022 
z
" transform="scale(0.015625)"/>
      <path id="Inter-Regular-1fb" d="M 1375 -69 
Q 1044 -69 780 48 
Q 516 166 364 398 
Q 213 631 213 978 
Q 213 1269 320 1466 
Q 428 1663 614 1781 
Q 800 1900 1036 1962 
Q 1272 2025 1531 2050 
Q 1834 2081 2020 2107 
Q 2206 2134 2292 2192 
Q 2378 2250 2378 2363 
L 2378 2378 
Q 2378 2528 2315 2631 
Q 2253 2734 2131 2789 
Q 2009 2844 1831 2844 
Q 1650 2844 1515 2789 
Q 1381 2734 1297 2643 
Q 1213 2553 1172 2441 
L 313 2584 
Q 403 2888 612 3100 
Q 822 3313 1133 3425 
Q 1444 3538 1831 3538 
Q 2116 3538 2381 3470 
Q 2647 3403 2858 3262 
Q 3069 3122 3192 2897 
Q 3316 2672 3316 2353 
L 3316 0 
L 2428 0 
L 2428 484 
L 2397 484 
Q 2313 322 2172 198 
Q 2031 75 1832 3 
Q 1634 -69 1375 -69 
z
M 1641 591 
Q 1863 591 2030 678 
Q 2197 766 2290 916 
Q 2384 1066 2384 1250 
L 2384 1628 
Q 2344 1597 2259 1572 
Q 2175 1547 2072 1528 
Q 1969 1509 1869 1493 
Q 1769 1478 1691 1469 
Q 1519 1444 1387 1387 
Q 1256 1331 1184 1239 
Q 1113 1147 1113 1003 
Q 1113 869 1181 776 
Q 1250 684 1367 637 
Q 1484 591 1641 591 
z
" transform="scale(0.015625)"/>
      <path id="Inter-Regular-2e0" d="M 1338 4656 
L 1338 0 
L 400 0 
L 400 4656 
L 1338 4656 
z
" transform="scale(0.015625)"/>
      <path id="Inter-Regular-3e6" d="M 375 -1238 
L 591 -531 
L 706 -559 
Q 894 -609 1041 -587 
Q 1188 -566 1277 -469 
Q 1366 -372 1384 -197 
L 1409 -9 
L 97 3494 
L 1094 3494 
L 1681 1681 
Q 1788 1338 1855 994 
Q 1922 650 2009 275 
L 1791 275 
Q 1875 650 1959 995 
Q 2044 1341 2156 1681 
L 2769 3494 
L 3753 3494 
L 2269 -413 
Q 2163 -694 1997 -900 
Q 1831 -1106 1584 -1218 
Q 1338 -1331 988 -1331 
Q 800 -1331 637 -1304 
Q 475 -1278 375 -1238 
z
" transform="scale(0.015625)"/>
      <path id="Inter-Regular-255" d="M 1678 -59 
Q 1275 -59 951 148 
Q 628 356 440 757 
Q 253 1159 253 1741 
Q 253 2338 447 2738 
Q 641 3138 962 3338 
Q 1284 3538 1672 3538 
Q 1969 3538 2166 3438 
Q 2363 3338 2484 3191 
Q 2606 3044 2666 2906 
L 2697 2906 
L 2697 4656 
L 3634 4656 
L 3634 0 
L 2713 0 
L 2713 559 
L 2666 559 
Q 2603 419 2479 276 
Q 2356 134 2159 37 
Q 1963 -59 1678 -59 
z
M 1966 694 
Q 2203 694 2372 825 
Q 2541 956 2628 1192 
Q 2716 1428 2716 1744 
Q 2716 2063 2630 2295 
Q 2544 2528 2375 2658 
Q 2206 2788 1966 2788 
Q 1719 2788 1551 2653 
Q 1384 2519 1300 2284 
Q 1216 2050 1216 1744 
Q 1216 1438 1302 1200 
Q 1388 963 1555 828 
Q 1722 694 1966 694 
z
" transform="scale(0.015625)"/>
      <path id="Inter-Regular-393" d="M 1603 -44 
Q 1241 -44 969 114 
Q 697 272 548 567 
Q 400 863 400 1272 
L 400 3494 
L 1338 3494 
L 1338 1434 
Q 1338 1109 1506 925 
Q 1675 741 1969 741 
Q 2169 741 2322 827 
Q 2475 913 2561 1077 
Q 2647 1241 2647 1472 
L 2647 3494 
L 3584 3494 
L 3584 0 
L 2700 0 
L 2688 872 
L 2741 872 
Q 2603 431 2320 193 
Q 2038 -44 1603 -44 
z
" transform="scale(0.015625)"/>
     </defs>
     <use xlink:href="#Inter-Regular-177"/>
     <use xlink:href="#Inter-Regular-266" transform="translate(63.96875 0)"/>
     <use xlink:href="#Inter-Regular-354" transform="translate(123.546875 0)"/>
     <use xlink:href="#Inter-Regular-367" transform="translate(164.265625 0)"/>
     <use xlink:href="#Inter-Regular-316" transform="translate(220.265625 0)"/>
     <use xlink:href="#Inter-Regular-305" transform="translate(281.59375 0)"/>
     <use xlink:href="#Inter-Regular-1fb" transform="translate(343.84375 0)"/>
     <use xlink:href="#Inter-Regular-2e0" transform="translate(401.90625 0)"/>
     <use xlink:href="#Inter-Regular-6f1" transform="translate(429 0)"/>
     <use xlink:href="#Inter-Regular-3e6" transform="translate(452.6875 0)"/>
     <use xlink:href="#Inter-Regular-6f1" transform="translate(512.890625 0)"/>
     <use xlink:href="#Inter-Regular-255" transform="translate(536.578125 0)"/>
     <use xlink:href="#Inter-Regular-266" transform="translate(599.609375 0)"/>
     <use xlink:href="#Inter-Regular-393" transform="translate(659.1875 0)"/>
     <use xlink:href="#Inter-Regular-255" transform="translate(721.4375 0)"/>
     <use xlink:href="#Inter-Regular-1fb" transform="translate(784.46875 0)"/>
    </g>
    <!-- no se tocan -->
    <g style="fill: #2a211c" transform="translate(42.830915 45.805532) scale(0.064 -0.064)">
     <defs>
      <path id="Inter-Regular-379" d="M 2134 3494 
L 2134 2778 
L 63 2778 
L 63 3494 
L 2134 3494 
z
M 544 4325 
L 1481 4325 
L 1481 1022 
Q 1481 856 1554 776 
Q 1628 697 1800 697 
Q 1853 697 1950 711 
Q 2047 725 2097 738 
L 2231 34 
Q 2075 -13 1920 -31 
Q 1766 -50 1625 -50 
Q 1100 -50 822 206 
Q 544 463 544 941 
L 544 4325 
z
" transform="scale(0.015625)"/>
      <path id="Inter-Regular-24a" d="M 1963 -69 
Q 1434 -69 1051 157 
Q 669 384 461 789 
Q 253 1194 253 1731 
Q 253 2275 461 2679 
Q 669 3084 1051 3311 
Q 1434 3538 1963 3538 
Q 2272 3538 2534 3456 
Q 2797 3375 3000 3225 
Q 3203 3075 3334 2859 
Q 3466 2644 3516 2375 
L 2644 2213 
Q 2616 2350 2556 2458 
Q 2497 2566 2412 2642 
Q 2328 2719 2217 2759 
Q 2106 2800 1972 2800 
Q 1722 2800 1551 2665 
Q 1381 2531 1295 2290 
Q 1209 2050 1209 1734 
Q 1209 1422 1295 1183 
Q 1381 944 1551 806 
Q 1722 669 1972 669 
Q 2106 669 2218 711 
Q 2331 753 2418 833 
Q 2506 913 2565 1025 
Q 2625 1138 2650 1278 
L 3522 1119 
Q 3472 841 3340 623 
Q 3209 406 3006 250 
Q 2803 94 2539 12 
Q 2275 -69 1963 -69 
z
" transform="scale(0.015625)"/>
     </defs>
     <use xlink:href="#Inter-Regular-305"/>
     <use xlink:href="#Inter-Regular-316" transform="translate(62.25 0)"/>
     <use xlink:href="#Inter-Regular-6f1" transform="translate(123.578125 0)"/>
     <use xlink:href="#Inter-Regular-367" transform="translate(147.265625 0)"/>
     <use xlink:href="#Inter-Regular-266" transform="translate(203.265625 0)"/>
     <use xlink:href="#Inter-Regular-6f1" transform="translate(262.84375 0)"/>
     <use xlink:href="#Inter-Regular-379" transform="translate(286.53125 0)"/>
     <use xlink:href="#Inter-Regular-316" transform="translate(322.1875 0)"/>
     <use xlink:href="#Inter-Regular-24a" transform="translate(383.515625 0)"/>
     <use xlink:href="#Inter-Regular-1fb" transform="translate(443.34375 0)"/>
     <use xlink:href="#Inter-Regular-305" transform="translate(501.40625 0)"/>
    </g>
    <!-- 126.488 M · 39,0% -->
    <g style="fill: #2a211c" transform="translate(42.830915 55.492907) scale(0.064 -0.064)">
     <defs>
      <path id="Inter-Regular-5e5" d="M 1069 1672 
Q 841 1672 684 1826 
Q 528 1981 528 2209 
Q 528 2437 684 2590 
Q 841 2744 1069 2744 
Q 1297 2744 1453 2590 
Q 1609 2437 1609 2209 
Q 1609 1981 1453 1826 
Q 1297 1672 1069 1672 
z
" transform="scale(0.015625)"/>
      <path id="Inter-Regular-548" d="M 1988 -69 
Q 1528 -69 1173 111 
Q 819 291 603 602 
Q 388 913 341 1297 
L 1284 1297 
Q 1341 1047 1525 900 
Q 1709 753 1988 753 
Q 2294 753 2505 936 
Q 2716 1119 2823 1455 
Q 2931 1791 2931 2250 
L 2900 2250 
Q 2794 2050 2617 1903 
Q 2441 1756 2214 1676 
Q 1988 1597 1731 1597 
Q 1319 1597 992 1790 
Q 666 1984 480 2326 
Q 294 2669 294 3103 
Q 294 3575 512 3942 
Q 731 4309 1122 4520 
Q 1513 4731 2028 4725 
Q 2381 4725 2709 4604 
Q 3038 4484 3298 4220 
Q 3559 3956 3712 3518 
Q 3866 3081 3866 2441 
Q 3866 1853 3733 1387 
Q 3600 922 3354 597 
Q 3109 272 2762 101 
Q 2416 -69 1988 -69 
z
M 2022 2297 
Q 2194 2297 2342 2362 
Q 2491 2428 2600 2543 
Q 2709 2659 2771 2809 
Q 2834 2959 2834 3134 
Q 2834 3359 2729 3546 
Q 2625 3734 2444 3848 
Q 2263 3963 2028 3963 
Q 1800 3963 1617 3852 
Q 1434 3741 1328 3552 
Q 1222 3363 1222 3128 
Q 1222 2894 1326 2706 
Q 1431 2519 1611 2408 
Q 1791 2297 2022 2297 
z
" transform="scale(0.015625)"/>
      <path id="Inter-Regular-5dd" d="M 372 -1234 
L 647 703 
L 1584 703 
L 1009 -1234 
L 372 -1234 
z
" transform="scale(0.015625)"/>
      <path id="Inter-Regular-6d0" d="M 1597 2434 
Q 1266 2434 1039 2575 
Q 813 2716 697 2950 
Q 581 3184 581 3459 
L 581 3703 
Q 581 3984 700 4217 
Q 819 4450 1045 4590 
Q 1272 4731 1597 4731 
Q 1928 4731 2153 4590 
Q 2378 4450 2495 4217 
Q 2613 3984 2613 3703 
L 2613 3459 
Q 2613 3178 2494 2945 
Q 2375 2713 2150 2573 
Q 1925 2434 1597 2434 
z
M 1597 3006 
Q 1806 3006 1882 3147 
Q 1959 3288 1959 3459 
L 1959 3703 
Q 1959 3872 1886 4017 
Q 1813 4163 1597 4163 
Q 1391 4163 1311 4016 
Q 1231 3869 1231 3703 
L 1231 3459 
Q 1231 3288 1311 3147 
Q 1391 3006 1597 3006 
z
M 4903 -81 
Q 4575 -81 4348 59 
Q 4122 200 4005 434 
Q 3888 669 3888 944 
L 3888 1188 
Q 3888 1469 4006 1701 
Q 4125 1934 4353 2075 
Q 4581 2216 4903 2216 
Q 5238 2216 5463 2075 
Q 5688 1934 5803 1701 
Q 5919 1469 5919 1188 
L 5919 944 
Q 5919 666 5801 431 
Q 5684 197 5457 58 
Q 5231 -81 4903 -81 
z
M 4903 491 
Q 5113 491 5189 631 
Q 5266 772 5266 944 
L 5266 1188 
Q 5266 1356 5192 1501 
Q 5119 1647 4903 1647 
Q 4697 1647 4619 1500 
Q 4541 1353 4541 1188 
L 4541 944 
Q 4541 772 4619 631 
Q 4697 491 4903 491 
z
M 1309 0 
L 4509 4656 
L 5156 4656 
L 1956 0 
L 1309 0 
z
" transform="scale(0.015625)"/>
     </defs>
     <use xlink:href="#Inter-Regular-53e"/>
     <use xlink:href="#Inter-Regular-53f" transform="translate(43.109375 0)"/>
     <use xlink:href="#Inter-Regular-545" transform="translate(106.046875 0)"/>
     <use xlink:href="#Inter-Regular-5de" transform="translate(168 0)"/>
     <use xlink:href="#Inter-Regular-542" transform="translate(201.40625 0)"/>
     <use xlink:href="#Inter-Regular-547" transform="translate(269.03125 0)"/>
     <use xlink:href="#Inter-Regular-547" transform="translate(334.125 0)"/>
     <use xlink:href="#Inter-Regular-6f1" transform="translate(399.21875 0)"/>
     <use xlink:href="#Inter-Regular-124" transform="translate(422.90625 0)"/>
     <use xlink:href="#Inter-Regular-6f1" transform="translate(516.078125 0)"/>
     <use xlink:href="#Inter-Regular-5e5" transform="translate(539.765625 0)"/>
     <use xlink:href="#Inter-Regular-6f1" transform="translate(573.171875 0)"/>
     <use xlink:href="#Inter-Regular-541" transform="translate(596.859375 0)"/>
     <use xlink:href="#Inter-Regular-548" transform="translate(661.40625 0)"/>
     <use xlink:href="#Inter-Regular-5dd" transform="translate(723.421875 0)"/>
     <use xlink:href="#Inter-Regular-53d" transform="translate(753.90625 0)"/>
     <use xlink:href="#Inter-Regular-6d0" transform="translate(821.34375 0)"/>
    </g>
   </g>
   <g id="patch_5">
    <path d="M 205.39547 91.851894 
L 349.147713 91.851894 
L 349.147713 66.074138 
L 205.39547 66.074138 
z
" clip-path="url(#p4db67dd0c6)" style="fill: #7e9070"/>
   </g>
   <g id="text_9">
    <!-- Contratos de servicios -->
    <g style="fill: #2a211c" transform="translate(207.39547 36.032657) scale(0.064 -0.064)">
     <defs>
      <path id="Inter-Regular-49" d="M 2456 -63 
Q 1838 -63 1348 218 
Q 859 500 576 1034 
Q 294 1569 294 2325 
Q 294 3084 578 3620 
Q 863 4156 1353 4437 
Q 1844 4719 2456 4719 
Q 2853 4719 3195 4608 
Q 3538 4497 3803 4284 
Q 4069 4072 4237 3764 
Q 4406 3456 4459 3066 
L 3494 3066 
Q 3463 3256 3373 3404 
Q 3284 3553 3151 3658 
Q 3019 3763 2847 3817 
Q 2675 3872 2475 3872 
Q 2113 3872 1838 3690 
Q 1563 3509 1413 3164 
Q 1263 2819 1263 2325 
Q 1263 1822 1416 1478 
Q 1569 1134 1841 959 
Q 2113 784 2472 784 
Q 2672 784 2842 839 
Q 3013 894 3148 998 
Q 3284 1103 3373 1253 
Q 3463 1403 3497 1591 
L 4463 1591 
Q 4425 1269 4270 972 
Q 4116 675 3859 440 
Q 3603 206 3250 71 
Q 2897 -63 2456 -63 
z
" transform="scale(0.015625)"/>
      <path id="Inter-Regular-3d4" d="M 1384 0 
L 97 3494 
L 1094 3494 
L 1681 1681 
Q 1788 1341 1867 994 
Q 1947 647 2031 275 
L 1831 275 
Q 1913 647 1991 994 
Q 2069 1341 2175 1681 
L 2756 3494 
L 3741 3494 
L 2450 0 
L 1384 0 
z
" transform="scale(0.015625)"/>
      <path id="Inter-Regular-2b1" d="M 400 0 
L 400 3494 
L 1338 3494 
L 1338 0 
L 400 0 
z
M 869 3950 
Q 656 3950 506 4090 
Q 356 4231 356 4431 
Q 356 4631 506 4772 
Q 656 4913 869 4913 
Q 1081 4913 1232 4773 
Q 1384 4634 1384 4431 
Q 1384 4231 1232 4090 
Q 1081 3950 869 3950 
z
" transform="scale(0.015625)"/>
     </defs>
     <use xlink:href="#Inter-Regular-49"/>
     <use xlink:href="#Inter-Regular-316" transform="translate(73.96875 0)"/>
     <use xlink:href="#Inter-Regular-305" transform="translate(135.296875 0)"/>
     <use xlink:href="#Inter-Regular-379" transform="translate(197.546875 0)"/>
     <use xlink:href="#Inter-Regular-354" transform="translate(234.171875 0)"/>
     <use xlink:href="#Inter-Regular-1fb" transform="translate(273.53125 0)"/>
     <use xlink:href="#Inter-Regular-379" transform="translate(331.59375 0)"/>
     <use xlink:href="#Inter-Regular-316" transform="translate(367.25 0)"/>
     <use xlink:href="#Inter-Regular-367" transform="translate(428.578125 0)"/>
     <use xlink:href="#Inter-Regular-6f1" transform="translate(484.578125 0)"/>
     <use xlink:href="#Inter-Regular-255" transform="translate(508.265625 0)"/>
     <use xlink:href="#Inter-Regular-266" transform="translate(571.296875 0)"/>
     <use xlink:href="#Inter-Regular-6f1" transform="translate(630.875 0)"/>
     <use xlink:href="#Inter-Regular-367" transform="translate(654.5625 0)"/>
     <use xlink:href="#Inter-Regular-266" transform="translate(710.5625 0)"/>
     <use xlink:href="#Inter-Regular-354" transform="translate(770.140625 0)"/>
     <use xlink:href="#Inter-Regular-3d4" transform="translate(812.421875 0)"/>
     <use xlink:href="#Inter-Regular-2b1" transform="translate(872.390625 0)"/>
     <use xlink:href="#Inter-Regular-24a" transform="translate(899.484375 0)"/>
     <use xlink:href="#Inter-Regular-2b1" transform="translate(958.328125 0)"/>
     <use xlink:href="#Inter-Regular-316" transform="translate(985.421875 0)"/>
     <use xlink:href="#Inter-Regular-367" transform="translate(1046.75 0)"/>
    </g>
    <!-- no dentro del ejercicio -->
    <g style="fill: #2a211c" transform="translate(207.39547 45.481032) scale(0.064 -0.064)">
     <defs>
      <path id="Inter-Regular-2cf" d="M 397 3494 
L 1338 3494 
L 1338 -178 
Q 1338 -578 1181 -826 
Q 1025 -1075 733 -1190 
Q 441 -1306 34 -1306 
L -156 -1306 
L -156 -569 
L -31 -569 
Q 206 -569 301 -467 
Q 397 -366 397 -166 
L 397 3494 
z
M 869 3950 
Q 656 3950 506 4090 
Q 356 4231 356 4431 
Q 356 4631 506 4772 
Q 656 4913 869 4913 
Q 1081 4913 1232 4773 
Q 1384 4634 1384 4431 
Q 1384 4231 1232 4090 
Q 1081 3950 869 3950 
z
" transform="scale(0.015625)"/>
     </defs>
     <use xlink:href="#Inter-Regular-305"/>
     <use xlink:href="#Inter-Regular-316" transform="translate(62.25 0)"/>
     <use xlink:href="#Inter-Regular-6f1" transform="translate(123.578125 0)"/>
     <use xlink:href="#Inter-Regular-255" transform="translate(147.265625 0)"/>
     <use xlink:href="#Inter-Regular-266" transform="translate(210.296875 0)"/>
     <use xlink:href="#Inter-Regular-305" transform="translate(269.875 0)"/>
     <use xlink:href="#Inter-Regular-379" transform="translate(332.125 0)"/>
     <use xlink:href="#Inter-Regular-354" transform="translate(368.75 0)"/>
     <use xlink:href="#Inter-Regular-316" transform="translate(407.03125 0)"/>
     <use xlink:href="#Inter-Regular-6f1" transform="translate(468.359375 0)"/>
     <use xlink:href="#Inter-Regular-255" transform="translate(492.046875 0)"/>
     <use xlink:href="#Inter-Regular-266" transform="translate(555.078125 0)"/>
     <use xlink:href="#Inter-Regular-2e0" transform="translate(614.65625 0)"/>
     <use xlink:href="#Inter-Regular-6f1" transform="translate(641.75 0)"/>
     <use xlink:href="#Inter-Regular-266" transform="translate(665.4375 0)"/>
     <use xlink:href="#Inter-Regular-2cf" transform="translate(725.015625 0)"/>
     <use xlink:href="#Inter-Regular-266" transform="translate(752.109375 0)"/>
     <use xlink:href="#Inter-Regular-354" transform="translate(811.6875 0)"/>
     <use xlink:href="#Inter-Regular-24a" transform="translate(849.96875 0)"/>
     <use xlink:href="#Inter-Regular-2b1" transform="translate(908.8125 0)"/>
     <use xlink:href="#Inter-Regular-24a" transform="translate(935.90625 0)"/>
     <use xlink:href="#Inter-Regular-2b1" transform="translate(994.75 0)"/>
     <use xlink:href="#Inter-Regular-316" transform="translate(1021.84375 0)"/>
    </g>
    <!-- 110.491 M · 34,1% -->
    <g style="fill: #2a211c" transform="translate(207.39547 55.492907) scale(0.064 -0.064)">
     <use xlink:href="#Inter-Regular-53e"/>
     <use xlink:href="#Inter-Regular-53e" transform="translate(43.109375 0)"/>
     <use xlink:href="#Inter-Regular-53d" transform="translate(86.21875 0)"/>
     <use xlink:href="#Inter-Regular-5de" transform="translate(150.734375 0)"/>
     <use xlink:href="#Inter-Regular-542" transform="translate(184.140625 0)"/>
     <use xlink:href="#Inter-Regular-548" transform="translate(251.765625 0)"/>
     <use xlink:href="#Inter-Regular-53e" transform="translate(316.703125 0)"/>
     <use xlink:href="#Inter-Regular-6f1" transform="translate(359.8125 0)"/>
     <use xlink:href="#Inter-Regular-124" transform="translate(383.5 0)"/>
     <use xlink:href="#Inter-Regular-6f1" transform="translate(476.671875 0)"/>
     <use xlink:href="#Inter-Regular-5e5" transform="translate(500.359375 0)"/>
     <use xlink:href="#Inter-Regular-6f1" transform="translate(533.765625 0)"/>
     <use xlink:href="#Inter-Regular-541" transform="translate(557.453125 0)"/>
     <use xlink:href="#Inter-Regular-542" transform="translate(622 0)"/>
     <use xlink:href="#Inter-Regular-5dd" transform="translate(686.25 0)"/>
     <use xlink:href="#Inter-Regular-53e" transform="translate(710.625 0)"/>
     <use xlink:href="#Inter-Regular-6d0" transform="translate(753.734375 0)"/>
    </g>
   </g>
   <g id="patch_6">
    <path d="M 349.147713 91.851894 
L 462.761251 91.851894 
L 462.761251 66.074138 
L 349.147713 66.074138 
z
" clip-path="url(#p4db67dd0c6)" style="fill: #5e7157"/>
   </g>
   <g id="text_10">
    <!-- Gasto flexible -->
    <g style="fill: #5e7157" transform="translate(417.941251 36.032657) scale(0.064 -0.064)">
     <defs>
      <path id="Inter-Regular-287" d="M 2344 3494 
L 2344 2778 
L 63 2778 
L 63 3494 
L 2344 3494 
z
M 678 0 
L 678 3763 
Q 678 4134 826 4381 
Q 975 4628 1231 4751 
Q 1488 4875 1813 4875 
Q 2034 4875 2217 4839 
Q 2400 4803 2484 4778 
L 2316 4072 
Q 2256 4088 2176 4103 
Q 2097 4119 2003 4119 
Q 1791 4119 1702 4017 
Q 1613 3916 1613 3731 
L 1613 0 
L 678 0 
z
" transform="scale(0.015625)"/>
      <path id="Inter-Regular-3e1" d="M 131 0 
L 1484 2159 
L 1481 1428 
L 200 3494 
L 1213 3494 
L 1528 2941 
Q 1678 2672 1798 2408 
Q 1919 2144 2044 1894 
L 1688 1894 
Q 1816 2141 1934 2406 
Q 2053 2672 2209 2941 
L 2538 3494 
L 3531 3494 
L 2225 1419 
L 2225 2141 
L 3581 0 
L 2575 0 
L 2188 659 
Q 2034 925 1911 1190 
Q 1788 1456 1659 1700 
L 2019 1700 
Q 1897 1456 1780 1190 
Q 1663 925 1513 659 
L 1125 0 
L 131 0 
z
" transform="scale(0.015625)"/>
      <path id="Inter-Regular-242" d="M 2356 -59 
Q 2072 -59 1875 37 
Q 1678 134 1554 276 
Q 1431 419 1366 559 
L 1322 559 
L 1322 0 
L 400 0 
L 400 4656 
L 1338 4656 
L 1338 2906 
L 1366 2906 
Q 1431 3044 1551 3191 
Q 1672 3338 1869 3438 
Q 2066 3538 2363 3538 
Q 2750 3538 3072 3338 
Q 3394 3138 3586 2738 
Q 3778 2338 3778 1741 
Q 3778 1159 3590 757 
Q 3403 356 3081 148 
Q 2759 -59 2356 -59 
z
M 2069 694 
Q 2313 694 2480 828 
Q 2647 963 2733 1200 
Q 2819 1438 2819 1744 
Q 2819 2050 2733 2284 
Q 2647 2519 2481 2653 
Q 2316 2788 2069 2788 
Q 1828 2788 1659 2658 
Q 1491 2528 1403 2295 
Q 1316 2063 1316 1744 
Q 1316 1428 1405 1192 
Q 1494 956 1662 825 
Q 1831 694 2069 694 
z
" transform="scale(0.015625)"/>
     </defs>
     <use xlink:href="#Inter-Regular-8d"/>
     <use xlink:href="#Inter-Regular-1fb" transform="translate(75.046875 0)"/>
     <use xlink:href="#Inter-Regular-367" transform="translate(133.109375 0)"/>
     <use xlink:href="#Inter-Regular-379" transform="translate(189.109375 0)"/>
     <use xlink:href="#Inter-Regular-316" transform="translate(224.765625 0)"/>
     <use xlink:href="#Inter-Regular-6f1" transform="translate(286.09375 0)"/>
     <use xlink:href="#Inter-Regular-287" transform="translate(309.78125 0)"/>
     <use xlink:href="#Inter-Regular-2e0" transform="translate(349.578125 0)"/>
     <use xlink:href="#Inter-Regular-266" transform="translate(376.671875 0)"/>
     <use xlink:href="#Inter-Regular-3e1" transform="translate(434.25 0)"/>
     <use xlink:href="#Inter-Regular-2b1" transform="translate(492.265625 0)"/>
     <use xlink:href="#Inter-Regular-242" transform="translate(519.359375 0)"/>
     <use xlink:href="#Inter-Regular-2e0" transform="translate(582.390625 0)"/>
     <use xlink:href="#Inter-Regular-266" transform="translate(609.484375 0)"/>
    </g>
    <!-- reasignable -->
    <g style="fill: #5e7157" transform="translate(424.076251 45.443532) scale(0.064 -0.064)">
     <defs>
      <path id="Inter-Regular-292" d="M 1950 -1381 
Q 1516 -1381 1191 -1270 
Q 866 -1159 662 -965 
Q 459 -772 381 -525 
L 1188 -300 
Q 1231 -397 1323 -489 
Q 1416 -581 1569 -640 
Q 1722 -700 1947 -700 
Q 2306 -700 2511 -536 
Q 2716 -372 2716 -25 
L 2716 619 
L 2644 619 
Q 2581 478 2462 347 
Q 2344 216 2151 133 
Q 1959 50 1675 50 
Q 1281 50 959 234 
Q 638 419 445 797 
Q 253 1175 253 1753 
Q 253 2344 448 2741 
Q 644 3138 967 3338 
Q 1291 3538 1678 3538 
Q 1972 3538 2172 3439 
Q 2372 3341 2495 3192 
Q 2619 3044 2681 2906 
L 2722 2906 
L 2722 3494 
L 3644 3494 
L 3644 28 
Q 3644 -444 3426 -758 
Q 3209 -1072 2828 -1226 
Q 2447 -1381 1950 -1381 
z
M 1969 763 
Q 2209 763 2376 881 
Q 2544 1000 2631 1223 
Q 2719 1447 2719 1759 
Q 2719 2069 2631 2300 
Q 2544 2531 2376 2659 
Q 2209 2788 1969 2788 
Q 1722 2788 1555 2655 
Q 1388 2522 1302 2290 
Q 1216 2059 1216 1759 
Q 1216 1453 1302 1229 
Q 1388 1006 1556 884 
Q 1725 763 1969 763 
z
" transform="scale(0.015625)"/>
     </defs>
     <use xlink:href="#Inter-Regular-354"/>
     <use xlink:href="#Inter-Regular-266" transform="translate(38.28125 0)"/>
     <use xlink:href="#Inter-Regular-1fb" transform="translate(98.84375 0)"/>
     <use xlink:href="#Inter-Regular-367" transform="translate(156.90625 0)"/>
     <use xlink:href="#Inter-Regular-2b1" transform="translate(212.90625 0)"/>
     <use xlink:href="#Inter-Regular-292" transform="translate(240 0)"/>
     <use xlink:href="#Inter-Regular-305" transform="translate(303.1875 0)"/>
     <use xlink:href="#Inter-Regular-1fb" transform="translate(365.4375 0)"/>
     <use xlink:href="#Inter-Regular-242" transform="translate(423.5 0)"/>
     <use xlink:href="#Inter-Regular-2e0" transform="translate(486.53125 0)"/>
     <use xlink:href="#Inter-Regular-266" transform="translate(513.625 0)"/>
    </g>
    <!-- 87.326 M · 26,9% -->
    <g style="fill: #5e7157" transform="translate(406.012251 55.492907) scale(0.064 -0.064)">
     <defs>
      <path id="Inter-Regular-546" d="M 553 0 
L 2491 3838 
L 2491 3869 
L 234 3869 
L 234 4656 
L 3488 4656 
L 3488 3856 
L 1544 0 
L 553 0 
z
" transform="scale(0.015625)"/>
     </defs>
     <use xlink:href="#Inter-Regular-547"/>
     <use xlink:href="#Inter-Regular-546" transform="translate(65.09375 0)"/>
     <use xlink:href="#Inter-Regular-5de" transform="translate(110.75 0)"/>
     <use xlink:href="#Inter-Regular-541" transform="translate(141.859375 0)"/>
     <use xlink:href="#Inter-Regular-53f" transform="translate(206.40625 0)"/>
     <use xlink:href="#Inter-Regular-545" transform="translate(269.34375 0)"/>
     <use xlink:href="#Inter-Regular-6f1" transform="translate(334.28125 0)"/>
     <use xlink:href="#Inter-Regular-124" transform="translate(357.96875 0)"/>
     <use xlink:href="#Inter-Regular-6f1" transform="translate(451.140625 0)"/>
     <use xlink:href="#Inter-Regular-5e5" transform="translate(474.828125 0)"/>
     <use xlink:href="#Inter-Regular-6f1" transform="translate(508.234375 0)"/>
     <use xlink:href="#Inter-Regular-53f" transform="translate(531.921875 0)"/>
     <use xlink:href="#Inter-Regular-545" transform="translate(594.859375 0)"/>
     <use xlink:href="#Inter-Regular-5dd" transform="translate(656.8125 0)"/>
     <use xlink:href="#Inter-Regular-548" transform="translate(688.953125 0)"/>
     <use xlink:href="#Inter-Regular-6d0" transform="translate(753.890625 0)"/>
    </g>
   </g>
   <g id="text_11">
    <!-- de ese margen flexible salen las dos propuestas -->
    <g style="fill: #5e7157" transform="translate(355.147713 106.92339) scale(0.06 -0.06)">
     <defs>
      <path id="Inter-Regular-2fe" d="M 494 0 
L 494 3494 
L 1041 3494 
L 1044 2713 
L 1000 2713 
Q 1072 2997 1226 3183 
Q 1381 3369 1589 3462 
Q 1797 3556 2022 3556 
Q 2403 3556 2639 3322 
Q 2875 3088 2944 2706 
L 2869 2706 
Q 2931 2969 3097 3159 
Q 3263 3350 3498 3453 
Q 3734 3556 4013 3556 
Q 4316 3556 4566 3425 
Q 4816 3294 4964 3028 
Q 5113 2763 5113 2356 
L 5113 0 
L 4550 0 
L 4550 2341 
Q 4550 2719 4337 2881 
Q 4125 3044 3844 3044 
Q 3609 3044 3439 2945 
Q 3269 2847 3176 2675 
Q 3084 2503 3084 2281 
L 3084 0 
L 2522 0 
L 2522 2397 
Q 2522 2688 2328 2866 
Q 2134 3044 1838 3044 
Q 1634 3044 1454 2948 
Q 1275 2853 1165 2665 
Q 1056 2478 1056 2200 
L 1056 0 
L 494 0 
z
" transform="scale(0.015625)"/>
      <path id="Inter-Regular-34b" d="M 494 -1306 
L 494 3494 
L 1038 3494 
L 1038 2934 
L 1100 2934 
Q 1159 3028 1265 3170 
Q 1372 3313 1572 3425 
Q 1772 3538 2113 3538 
Q 2550 3538 2883 3319 
Q 3216 3100 3405 2695 
Q 3594 2291 3594 1738 
Q 3594 1181 3406 775 
Q 3219 369 2886 147 
Q 2553 -75 2116 -75 
Q 1784 -75 1581 39 
Q 1378 153 1268 298 
Q 1159 444 1100 541 
L 1056 541 
L 1056 -1306 
L 494 -1306 
z
M 2031 428 
Q 2359 428 2579 604 
Q 2800 781 2911 1079 
Q 3022 1378 3022 1744 
Q 3022 2106 2912 2398 
Q 2803 2691 2583 2862 
Q 2363 3034 2031 3034 
Q 1709 3034 1490 2871 
Q 1272 2709 1161 2420 
Q 1050 2131 1050 1744 
Q 1050 1356 1162 1059 
Q 1275 763 1495 595 
Q 1716 428 2031 428 
z
" transform="scale(0.015625)"/>
     </defs>
     <use xlink:href="#Inter-Regular-255"/>
     <use xlink:href="#Inter-Regular-266" transform="translate(61.234375 0)"/>
     <use xlink:href="#Inter-Regular-6f1" transform="translate(119.53125 0)"/>
     <use xlink:href="#Inter-Regular-266" transform="translate(147.65625 0)"/>
     <use xlink:href="#Inter-Regular-367" transform="translate(205.953125 0)"/>
     <use xlink:href="#Inter-Regular-266" transform="translate(258.734375 0)"/>
     <use xlink:href="#Inter-Regular-6f1" transform="translate(317.03125 0)"/>
     <use xlink:href="#Inter-Regular-2fe" transform="translate(345.15625 0)"/>
     <use xlink:href="#Inter-Regular-1fb" transform="translate(432.75 0)"/>
     <use xlink:href="#Inter-Regular-354" transform="translate(488.90625 0)"/>
     <use xlink:href="#Inter-Regular-292" transform="translate(524.890625 0)"/>
     <use xlink:href="#Inter-Regular-266" transform="translate(586.21875 0)"/>
     <use xlink:href="#Inter-Regular-305" transform="translate(644.515625 0)"/>
     <use xlink:href="#Inter-Regular-6f1" transform="translate(703.59375 0)"/>
     <use xlink:href="#Inter-Regular-287" transform="translate(731.71875 0)"/>
     <use xlink:href="#Inter-Regular-2e0" transform="translate(768.734375 0)"/>
     <use xlink:href="#Inter-Regular-266" transform="translate(792.953125 0)"/>
     <use xlink:href="#Inter-Regular-3e1" transform="translate(849 0)"/>
     <use xlink:href="#Inter-Regular-2b1" transform="translate(903.59375 0)"/>
     <use xlink:href="#Inter-Regular-242" transform="translate(927.8125 0)"/>
     <use xlink:href="#Inter-Regular-2e0" transform="translate(989.046875 0)"/>
     <use xlink:href="#Inter-Regular-266" transform="translate(1013.265625 0)"/>
     <use xlink:href="#Inter-Regular-6f1" transform="translate(1071.5625 0)"/>
     <use xlink:href="#Inter-Regular-367" transform="translate(1099.6875 0)"/>
     <use xlink:href="#Inter-Regular-1fb" transform="translate(1152.46875 0)"/>
     <use xlink:href="#Inter-Regular-2e0" transform="translate(1208.625 0)"/>
     <use xlink:href="#Inter-Regular-266" transform="translate(1232.84375 0)"/>
     <use xlink:href="#Inter-Regular-305" transform="translate(1291.140625 0)"/>
     <use xlink:href="#Inter-Regular-6f1" transform="translate(1350.21875 0)"/>
     <use xlink:href="#Inter-Regular-2e0" transform="translate(1378.34375 0)"/>
     <use xlink:href="#Inter-Regular-1fb" transform="translate(1402.5625 0)"/>
     <use xlink:href="#Inter-Regular-367" transform="translate(1458.71875 0)"/>
     <use xlink:href="#Inter-Regular-6f1" transform="translate(1511.5 0)"/>
     <use xlink:href="#Inter-Regular-255" transform="translate(1539.625 0)"/>
     <use xlink:href="#Inter-Regular-316" transform="translate(1600.859375 0)"/>
     <use xlink:href="#Inter-Regular-367" transform="translate(1660.828125 0)"/>
     <use xlink:href="#Inter-Regular-6f1" transform="translate(1713.609375 0)"/>
     <use xlink:href="#Inter-Regular-34b" transform="translate(1741.734375 0)"/>
     <use xlink:href="#Inter-Regular-354" transform="translate(1802.96875 0)"/>
     <use xlink:href="#Inter-Regular-316" transform="translate(1838.953125 0)"/>
     <use xlink:href="#Inter-Regular-34b" transform="translate(1898.921875 0)"/>
     <use xlink:href="#Inter-Regular-393" transform="translate(1960.15625 0)"/>
     <use xlink:href="#Inter-Regular-266" transform="translate(2019.28125 0)"/>
     <use xlink:href="#Inter-Regular-367" transform="translate(2077.578125 0)"/>
     <use xlink:href="#Inter-Regular-379" transform="translate(2130.359375 0)"/>
     <use xlink:href="#Inter-Regular-1fb" transform="translate(2163.5625 0)"/>
     <use xlink:href="#Inter-Regular-367" transform="translate(2219.71875 0)"/>
    </g>
   </g>
   <g id="patch_7">
    <path d="M 349.147713 133.525934 
L 358.547933 133.525934 
L 358.547933 118.918539 
L 349.147713 118.918539 
z
" clip-path="url(#p4db67dd0c6)" style="fill: #7c2e23"/>
   </g>
   <g id="text_12">
    <!-- programa de empleo y vivienda: 7.225 M, el 8,3% del flexible -->
    <g style="fill: #7c2e23" transform="translate(154.276713 128.550361) scale(0.064 -0.064)">
     <defs>
      <path id="Inter-Regular-5e1" d="M 1069 -59 
Q 841 -59 684 95 
Q 528 250 528 478 
Q 528 706 684 859 
Q 841 1013 1069 1013 
Q 1297 1013 1453 859 
Q 1609 706 1609 478 
Q 1609 250 1453 95 
Q 1297 -59 1069 -59 
z
M 1069 2260 
Q 841 2260 684 2414 
Q 528 2569 528 2797 
Q 528 3025 684 3178 
Q 841 3332 1069 3332 
Q 1297 3332 1453 3178 
Q 1609 3025 1609 2797 
Q 1609 2569 1453 2414 
Q 1297 2260 1069 2260 
z
" transform="scale(0.015625)"/>
     </defs>
     <use xlink:href="#Inter-Regular-34b"/>
     <use xlink:href="#Inter-Regular-354" transform="translate(63.03125 0)"/>
     <use xlink:href="#Inter-Regular-316" transform="translate(101.3125 0)"/>
     <use xlink:href="#Inter-Regular-292" transform="translate(162.640625 0)"/>
     <use xlink:href="#Inter-Regular-354" transform="translate(225.828125 0)"/>
     <use xlink:href="#Inter-Regular-1fb" transform="translate(265.1875 0)"/>
     <use xlink:href="#Inter-Regular-2fe" transform="translate(323.25 0)"/>
     <use xlink:href="#Inter-Regular-1fb" transform="translate(414.515625 0)"/>
     <use xlink:href="#Inter-Regular-6f1" transform="translate(472.578125 0)"/>
     <use xlink:href="#Inter-Regular-255" transform="translate(496.265625 0)"/>
     <use xlink:href="#Inter-Regular-266" transform="translate(559.296875 0)"/>
     <use xlink:href="#Inter-Regular-6f1" transform="translate(618.875 0)"/>
     <use xlink:href="#Inter-Regular-266" transform="translate(642.5625 0)"/>
     <use xlink:href="#Inter-Regular-2fe" transform="translate(702.140625 0)"/>
     <use xlink:href="#Inter-Regular-34b" transform="translate(793.40625 0)"/>
     <use xlink:href="#Inter-Regular-2e0" transform="translate(856.4375 0)"/>
     <use xlink:href="#Inter-Regular-266" transform="translate(883.53125 0)"/>
     <use xlink:href="#Inter-Regular-316" transform="translate(943.109375 0)"/>
     <use xlink:href="#Inter-Regular-6f1" transform="translate(1004.4375 0)"/>
     <use xlink:href="#Inter-Regular-3e6" transform="translate(1028.125 0)"/>
     <use xlink:href="#Inter-Regular-6f1" transform="translate(1088.328125 0)"/>
     <use xlink:href="#Inter-Regular-3d4" transform="translate(1112.015625 0)"/>
     <use xlink:href="#Inter-Regular-2b1" transform="translate(1171.984375 0)"/>
     <use xlink:href="#Inter-Regular-3d4" transform="translate(1199.078125 0)"/>
     <use xlink:href="#Inter-Regular-2b1" transform="translate(1259.046875 0)"/>
     <use xlink:href="#Inter-Regular-266" transform="translate(1286.140625 0)"/>
     <use xlink:href="#Inter-Regular-305" transform="translate(1345.71875 0)"/>
     <use xlink:href="#Inter-Regular-255" transform="translate(1407.96875 0)"/>
     <use xlink:href="#Inter-Regular-1fb" transform="translate(1471 0)"/>
     <use xlink:href="#Inter-Regular-5e1" transform="translate(1529.0625 0)"/>
     <use xlink:href="#Inter-Regular-6f1" transform="translate(1562.46875 0)"/>
     <use xlink:href="#Inter-Regular-546" transform="translate(1586.15625 0)"/>
     <use xlink:href="#Inter-Regular-5de" transform="translate(1631.8125 0)"/>
     <use xlink:href="#Inter-Regular-53f" transform="translate(1665.21875 0)"/>
     <use xlink:href="#Inter-Regular-53f" transform="translate(1728.15625 0)"/>
     <use xlink:href="#Inter-Regular-543" transform="translate(1791.09375 0)"/>
     <use xlink:href="#Inter-Regular-6f1" transform="translate(1853.296875 0)"/>
     <use xlink:href="#Inter-Regular-124" transform="translate(1876.984375 0)"/>
     <use xlink:href="#Inter-Regular-5dd" transform="translate(1970.15625 0)"/>
     <use xlink:href="#Inter-Regular-6f1" transform="translate(2000.484375 0)"/>
     <use xlink:href="#Inter-Regular-266" transform="translate(2024.171875 0)"/>
     <use xlink:href="#Inter-Regular-2e0" transform="translate(2083.75 0)"/>
     <use xlink:href="#Inter-Regular-6f1" transform="translate(2110.84375 0)"/>
     <use xlink:href="#Inter-Regular-547" transform="translate(2134.53125 0)"/>
     <use xlink:href="#Inter-Regular-5dd" transform="translate(2197.53125 0)"/>
     <use xlink:href="#Inter-Regular-541" transform="translate(2228.640625 0)"/>
     <use xlink:href="#Inter-Regular-6d0" transform="translate(2293.1875 0)"/>
     <use xlink:href="#Inter-Regular-6f1" transform="translate(2394.75 0)"/>
     <use xlink:href="#Inter-Regular-255" transform="translate(2418.4375 0)"/>
     <use xlink:href="#Inter-Regular-266" transform="translate(2481.46875 0)"/>
     <use xlink:href="#Inter-Regular-2e0" transform="translate(2541.046875 0)"/>
     <use xlink:href="#Inter-Regular-6f1" transform="translate(2568.140625 0)"/>
     <use xlink:href="#Inter-Regular-287" transform="translate(2591.828125 0)"/>
     <use xlink:href="#Inter-Regular-2e0" transform="translate(2631.625 0)"/>
     <use xlink:href="#Inter-Regular-266" transform="translate(2658.71875 0)"/>
     <use xlink:href="#Inter-Regular-3e1" transform="translate(2716.296875 0)"/>
     <use xlink:href="#Inter-Regular-2b1" transform="translate(2774.3125 0)"/>
     <use xlink:href="#Inter-Regular-242" transform="translate(2801.40625 0)"/>
     <use xlink:href="#Inter-Regular-2e0" transform="translate(2864.4375 0)"/>
     <use xlink:href="#Inter-Regular-266" transform="translate(2891.53125 0)"/>
    </g>
   </g>
   <g id="patch_8">
    <path d="M 349.147713 154.148139 
L 386.757802 154.148139 
L 386.757802 139.540744 
L 349.147713 139.540744 
z
" clip-path="url(#p4db67dd0c6)" style="fill: #7e9070"/>
   </g>
   <g id="text_13">
    <!-- obra pública vecinal (cap. 4): 28.908 M, el 33,1% del flexible -->
    <g style="fill: #7e9070" transform="translate(155.753713 149.172567) scale(0.064 -0.064)">
     <defs>
      <path id="Inter-Regular-39a" d="M 1603 -44 
Q 1241 -44 969 114 
Q 697 272 548 567 
Q 400 863 400 1272 
L 400 3494 
L 1338 3494 
L 1338 1434 
Q 1338 1109 1506 925 
Q 1675 741 1969 741 
Q 2169 741 2322 827 
Q 2475 913 2561 1077 
Q 2647 1241 2647 1472 
L 2647 3494 
L 3584 3494 
L 3584 0 
L 2700 0 
L 2688 872 
L 2741 872 
Q 2603 431 2320 193 
Q 2038 -44 1603 -44 
z
M 1653 3938 
L 2088 4909 
L 2956 4909 
L 2309 3938 
L 1653 3938 
z
" transform="scale(0.015625)"/>
      <path id="Inter-Regular-59d" d="M 528 1897 
Q 528 2416 633 2975 
Q 738 3534 919 4050 
Q 1100 4566 1334 4941 
L 2206 4941 
Q 1981 4456 1818 3929 
Q 1656 3403 1570 2884 
Q 1484 2366 1484 1897 
Q 1484 1488 1557 1073 
Q 1631 659 1790 187 
Q 1950 -284 2206 -872 
L 1334 -872 
Q 938 -213 733 492 
Q 528 1197 528 1897 
z
" transform="scale(0.015625)"/>
      <path id="Inter-Regular-59e" d="M 209 -872 
Q 469 -278 626 195 
Q 784 669 856 1081 
Q 928 1494 928 1897 
Q 928 2366 842 2884 
Q 756 3403 595 3929 
Q 434 4456 209 4941 
L 1078 4941 
Q 1316 4566 1497 4050 
Q 1678 3534 1781 2973 
Q 1884 2413 1884 1897 
Q 1884 1191 1678 486 
Q 1472 -219 1078 -872 
L 209 -872 
z
" transform="scale(0.015625)"/>
     </defs>
     <use xlink:href="#Inter-Regular-316"/>
     <use xlink:href="#Inter-Regular-242" transform="translate(61.328125 0)"/>
     <use xlink:href="#Inter-Regular-354" transform="translate(124.359375 0)"/>
     <use xlink:href="#Inter-Regular-1fb" transform="translate(163.71875 0)"/>
     <use xlink:href="#Inter-Regular-6f1" transform="translate(221.78125 0)"/>
     <use xlink:href="#Inter-Regular-34b" transform="translate(245.46875 0)"/>
     <use xlink:href="#Inter-Regular-39a" transform="translate(308.5 0)"/>
     <use xlink:href="#Inter-Regular-242" transform="translate(370.75 0)"/>
     <use xlink:href="#Inter-Regular-2e0" transform="translate(433.78125 0)"/>
     <use xlink:href="#Inter-Regular-2b1" transform="translate(460.875 0)"/>
     <use xlink:href="#Inter-Regular-24a" transform="translate(487.96875 0)"/>
     <use xlink:href="#Inter-Regular-1fb" transform="translate(547.796875 0)"/>
     <use xlink:href="#Inter-Regular-6f1" transform="translate(605.859375 0)"/>
     <use xlink:href="#Inter-Regular-3d4" transform="translate(629.546875 0)"/>
     <use xlink:href="#Inter-Regular-266" transform="translate(687.703125 0)"/>
     <use xlink:href="#Inter-Regular-24a" transform="translate(747.28125 0)"/>
     <use xlink:href="#Inter-Regular-2b1" transform="translate(806.125 0)"/>
     <use xlink:href="#Inter-Regular-305" transform="translate(833.21875 0)"/>
     <use xlink:href="#Inter-Regular-1fb" transform="translate(895.46875 0)"/>
     <use xlink:href="#Inter-Regular-2e0" transform="translate(953.53125 0)"/>
     <use xlink:href="#Inter-Regular-6f1" transform="translate(980.625 0)"/>
     <use xlink:href="#Inter-Regular-59d" transform="translate(1004.3125 0)"/>
     <use xlink:href="#Inter-Regular-24a" transform="translate(1041.484375 0)"/>
     <use xlink:href="#Inter-Regular-1fb" transform="translate(1101.3125 0)"/>
     <use xlink:href="#Inter-Regular-34b" transform="translate(1159.375 0)"/>
     <use xlink:href="#Inter-Regular-5de" transform="translate(1222.40625 0)"/>
     <use xlink:href="#Inter-Regular-6f1" transform="translate(1252.734375 0)"/>
     <use xlink:href="#Inter-Regular-542" transform="translate(1276.421875 0)"/>
     <use xlink:href="#Inter-Regular-59e" transform="translate(1344.046875 0)"/>
     <use xlink:href="#Inter-Regular-5e1" transform="translate(1381.75 0)"/>
     <use xlink:href="#Inter-Regular-6f1" transform="translate(1415.15625 0)"/>
     <use xlink:href="#Inter-Regular-53f" transform="translate(1438.84375 0)"/>
     <use xlink:href="#Inter-Regular-547" transform="translate(1501.78125 0)"/>
     <use xlink:href="#Inter-Regular-5de" transform="translate(1564.78125 0)"/>
     <use xlink:href="#Inter-Regular-548" transform="translate(1596.921875 0)"/>
     <use xlink:href="#Inter-Regular-53d" transform="translate(1661.859375 0)"/>
     <use xlink:href="#Inter-Regular-547" transform="translate(1729.296875 0)"/>
     <use xlink:href="#Inter-Regular-6f1" transform="translate(1794.390625 0)"/>
     <use xlink:href="#Inter-Regular-124" transform="translate(1818.078125 0)"/>
     <use xlink:href="#Inter-Regular-5dd" transform="translate(1911.25 0)"/>
     <use xlink:href="#Inter-Regular-6f1" transform="translate(1941.578125 0)"/>
     <use xlink:href="#Inter-Regular-266" transform="translate(1965.265625 0)"/>
     <use xlink:href="#Inter-Regular-2e0" transform="translate(2024.84375 0)"/>
     <use xlink:href="#Inter-Regular-6f1" transform="translate(2051.9375 0)"/>
     <use xlink:href="#Inter-Regular-541" transform="translate(2075.625 0)"/>
     <use xlink:href="#Inter-Regular-541" transform="translate(2140.171875 0)"/>
     <use xlink:href="#Inter-Regular-5dd" transform="translate(2202.625 0)"/>
     <use xlink:href="#Inter-Regular-53e" transform="translate(2227 0)"/>
     <use xlink:href="#Inter-Regular-6d0" transform="translate(2270.109375 0)"/>
     <use xlink:href="#Inter-Regular-6f1" transform="translate(2371.671875 0)"/>
     <use xlink:href="#Inter-Regular-255" transform="translate(2395.359375 0)"/>
     <use xlink:href="#Inter-Regular-266" transform="translate(2458.390625 0)"/>
     <use xlink:href="#Inter-Regular-2e0" transform="translate(2517.96875 0)"/>
     <use xlink:href="#Inter-Regular-6f1" transform="translate(2545.0625 0)"/>
     <use xlink:href="#Inter-Regular-287" transform="translate(2568.75 0)"/>
     <use xlink:href="#Inter-Regular-2e0" transform="translate(2608.546875 0)"/>
     <use xlink:href="#Inter-Regular-266" transform="translate(2635.640625 0)"/>
     <use xlink:href="#Inter-Regular-3e1" transform="translate(2693.21875 0)"/>
     <use xlink:href="#Inter-Regular-2b1" transform="translate(2751.234375 0)"/>
     <use xlink:href="#Inter-Regular-242" transform="translate(2778.328125 0)"/>
     <use xlink:href="#Inter-Regular-2e0" transform="translate(2841.359375 0)"/>
     <use xlink:href="#Inter-Regular-266" transform="translate(2868.453125 0)"/>
    </g>
   </g>
  </g>
 </g>
 <defs>
  <clipPath id="p4db67dd0c6">
   <rect x="40.830915" y="17.0964" width="430.368942" height="152.088764"/>
  </clipPath>
 </defs>
</svg>
