<?xml version="1.0" encoding="utf-8" standalone="no"?>
<!DOCTYPE svg PUBLIC "-//W3C//DTD SVG 1.1//EN"
  "http://www.w3.org/Graphics/SVG/1.1/DTD/svg11.dtd">
<svg xmlns:xlink="http://www.w3.org/1999/xlink" width="526.493716pt" height="115.1803pt" viewBox="0 0 526.493716 115.1803" xmlns="http://www.w3.org/2000/svg" version="1.1">
 <metadata>
  <rdf:RDF xmlns:dc="http://purl.org/dc/elements/1.1/" xmlns:cc="http://creativecommons.org/ns#" xmlns:rdf="http://www.w3.org/1999/02/22-rdf-syntax-ns#">
   <cc:Work>
    <dc:type rdf:resource="http://purl.org/dc/dcmitype/StillImage"/>
    <dc:date>2026-10-04T02:51:41.049767</dc:date>
    <dc:format>image/svg+xml</dc:format>
    <dc:creator>
     <cc:Agent>
      <dc:title>Matplotlib v3.11.2, https://matplotlib.org/</dc:title>
     </cc:Agent>
    </dc:creator>
   </cc:Work>
  </rdf:RDF>
 </metadata>
 <defs>
  <style type="text/css">*{stroke-linejoin: round; stroke-linecap: butt}</style>
 </defs>
 <g id="figure_1">
  <g id="patch_1">
   <path d="M 0 115.1803 
L 526.493716 115.1803 
L 526.493716 0 
L 0 0 
z
" style="fill: #f5f0e8"/>
  </g>
  <g id="axes_1">
   <g id="patch_2">
    <path d="M 68.922813 91.2528 
L 510.672813 91.2528 
L 510.672813 1.44 
L 68.922813 1.44 
z
" style="fill: #f5f0e8"/>
   </g>
   <g id="matplotlib.axis_1">
    <g id="xtick_1">
     <g id="line2d_1">
      <path d="M 68.922813 91.2528 
L 68.922813 1.44 
" clip-path="url(#p796d2791ef)" style="fill: none; stroke: #d9cdba; stroke-opacity: 0.85; stroke-width: 0.5; stroke-linecap: square"/>
     </g>
     <g id="line2d_2"/>
     <g id="text_1">
      <text style="font-size: 6.6px; font-family: 'Inter'; text-anchor: middle; fill: #6e625a" x="68.922813" y="100.64655" transform="rotate(-0 68.922813 100.64655)">0</text>
     </g>
    </g>
    <g id="xtick_2">
     <g id="line2d_3">
      <path d="M 135.854631 91.2528 
L 135.854631 1.44 
" clip-path="url(#p796d2791ef)" style="fill: none; stroke: #d9cdba; stroke-opacity: 0.85; stroke-width: 0.5; stroke-linecap: square"/>
     </g>
     <g id="line2d_4"/>
     <g id="text_2">
      <text style="font-size: 6.6px; font-family: 'Inter'; text-anchor: middle; fill: #6e625a" x="135.854631" y="100.64655" transform="rotate(-0 135.854631 100.64655)">10</text>
     </g>
    </g>
    <g id="xtick_3">
     <g id="line2d_5">
      <path d="M 202.786449 91.2528 
L 202.786449 1.44 
" clip-path="url(#p796d2791ef)" style="fill: none; stroke: #d9cdba; stroke-opacity: 0.85; stroke-width: 0.5; stroke-linecap: square"/>
     </g>
     <g id="line2d_6"/>
     <g id="text_3">
      <text style="font-size: 6.6px; font-family: 'Inter'; text-anchor: middle; fill: #6e625a" x="202.786449" y="100.64655" transform="rotate(-0 202.786449 100.64655)">20</text>
     </g>
    </g>
    <g id="xtick_4">
     <g id="line2d_7">
      <path d="M 269.718267 91.2528 
L 269.718267 1.44 
" clip-path="url(#p796d2791ef)" style="fill: none; stroke: #d9cdba; stroke-opacity: 0.85; stroke-width: 0.5; stroke-linecap: square"/>
     </g>
     <g id="line2d_8"/>
     <g id="text_4">
      <text style="font-size: 6.6px; font-family: 'Inter'; text-anchor: middle; fill: #6e625a" x="269.718267" y="100.64655" transform="rotate(-0 269.718267 100.64655)">30</text>
     </g>
    </g>
    <g id="xtick_5">
     <g id="line2d_9">
      <path d="M 336.650085 91.2528 
L 336.650085 1.44 
" clip-path="url(#p796d2791ef)" style="fill: none; stroke: #d9cdba; stroke-opacity: 0.85; stroke-width: 0.5; stroke-linecap: square"/>
     </g>
     <g id="line2d_10"/>
     <g id="text_5">
      <text style="font-size: 6.6px; font-family: 'Inter'; text-anchor: middle; fill: #6e625a" x="336.650085" y="100.64655" transform="rotate(-0 336.650085 100.64655)">40</text>
     </g>
    </g>
    <g id="xtick_6">
     <g id="line2d_11">
      <path d="M 403.581903 91.2528 
L 403.581903 1.44 
" clip-path="url(#p796d2791ef)" style="fill: none; stroke: #d9cdba; stroke-opacity: 0.85; stroke-width: 0.5; stroke-linecap: square"/>
     </g>
     <g id="line2d_12"/>
     <g id="text_6">
      <text style="font-size: 6.6px; font-family: 'Inter'; text-anchor: middle; fill: #6e625a" x="403.581903" y="100.64655" transform="rotate(-0 403.581903 100.64655)">50</text>
     </g>
    </g>
    <g id="xtick_7">
     <g id="line2d_13">
      <path d="M 470.513722 91.2528 
L 470.513722 1.44 
" clip-path="url(#p796d2791ef)" style="fill: none; stroke: #d9cdba; stroke-opacity: 0.85; stroke-width: 0.5; stroke-linecap: square"/>
     </g>
     <g id="line2d_14"/>
     <g id="text_7">
      <text style="font-size: 6.6px; font-family: 'Inter'; text-anchor: middle; fill: #6e625a" x="470.513722" y="100.64655" transform="rotate(-0 470.513722 100.64655)">60</text>
     </g>
    </g>
    <g id="text_8">
     <text style="font-size: 6.2px; font-family: 'Inter'; text-anchor: middle; fill: #6e625a" x="289.797813" y="112.244792" transform="rotate(-0 289.797813 112.244792)">miles de millones de pesos de 2025</text>
    </g>
   </g>
   <g id="matplotlib.axis_2">
    <g id="ytick_1">
     <g id="line2d_15"/>
     <g id="text_9">
      <text style="font-size: 7.6px; font-family: 'Inter'; fill: #6e625a" transform="translate(16.691063 19.431356)">Lo que había</text>
      <text style="font-size: 7.6px; font-family: 'Inter'; fill: #6e625a" transform="translate(19.720375 28.627059)">para invertir</text>
     </g>
    </g>
    <g id="ytick_2">
     <g id="line2d_16"/>
     <g id="text_10">
      <text style="font-size: 7.6px; font-family: 'Inter'; fill: #6e625a" transform="translate(1.44 55.792814)">Lo que se invirtió</text>
      <text style="font-size: 7.6px; font-family: 'Inter'; fill: #6e625a" transform="translate(35.524813 64.988517)">en obra</text>
     </g>
    </g>
   </g>
   <g id="patch_3">
    <path d="M 68.922813 28.347479 
L 415.50246 28.347479 
L 415.50246 12.348437 
L 68.922813 12.348437 
z
" clip-path="url(#p796d2791ef)" style="fill: #66734c"/>
   </g>
   <g id="patch_4">
    <path d="M 68.922813 64.708936 
L 415.50246 64.708936 
L 415.50246 48.709895 
L 68.922813 48.709895 
z
" clip-path="url(#p796d2791ef)" style="fill: #7c2e23"/>
   </g>
   <g id="patch_5">
    <path d="M 415.50246 64.708936 
L 456.002903 64.708936 
L 456.002903 48.709895 
L 415.50246 48.709895 
z
" clip-path="url(#p796d2791ef)" style="fill: url(#hfea00f95a4)"/>
   </g>
   <g id="line2d_17">
    <path d="M 415.50246 71.981228 
L 415.50246 5.076146 
" clip-path="url(#p796d2791ef)" style="fill: none; stroke-dasharray: 1.68,1.4; stroke-dashoffset: 0; stroke: #2a211c; stroke-width: 0.7"/>
   </g>
   <g id="patch_6">
    <path d="M 68.922813 91.2528 
L 510.672813 91.2528 
" style="fill: none; stroke: #d9cdba; stroke-width: 0.6; stroke-linejoin: miter; stroke-linecap: square"/>
   </g>
   <g id="text_11">
    <text style="font-weight: 600; font-size: 8.2px; font-family: 'Inter'; text-anchor: middle; fill: #f7f2eb" x="242.212636" y="23.330868" transform="rotate(-0 242.212636 23.330868)">51.781 M</text>
   </g>
   <g id="text_12">
    <text style="font-weight: 600; font-size: 8.2px; font-family: 'Inter'; text-anchor: middle; fill: #f7f2eb" x="242.212636" y="59.692326" transform="rotate(-0 242.212636 59.692326)">57.832 M</text>
   </g>
   <g id="patch_7">
    <path d="M 473.931213 73.621269 
Q 465.914685 70.93688 457.898157 68.252491 
" style="fill: none; stroke: #7c2e23; stroke-width: 0.7; stroke-linecap: round"/>
   </g>
   <g id="text_13">
    <text style="font-weight: 600; font-size: 7.6px; font-family: 'Inter'; text-anchor: start; fill: #7c2e23" x="466.002903" y="83.617853" transform="rotate(-0 466.002903 83.617853)">faltaron 6.051 M</text>
   </g>
  </g>
 </g>
 <defs>
  <clipPath id="p796d2791ef">
   <rect x="68.922813" y="1.44" width="441.75" height="89.8128"/>
  </clipPath>
 </defs>
 <defs>
  <pattern id="hfea00f95a4" patternUnits="userSpaceOnUse" x="0" y="0" width="72" height="72">
   <rect x="0" y="0" width="73" height="73" fill="#c89a8f"/>
   <path d="M -36 36 
L 36 -36 
M -33 39 
L 39 -33 
M -30 42 
L 42 -30 
M -27 45 
L 45 -27 
M -24 48 
L 48 -24 
M -21 51 
L 51 -21 
M -18 54 
L 54 -18 
M -15 57 
L 57 -15 
M -12 60 
L 60 -12 
M -9 63 
L 63 -9 
M -6 66 
L 66 -6 
M -3 69 
L 69 -3 
M 0 72 
L 72 0 
M 3 75 
L 75 3 
M 6 78 
L 78 6 
M 9 81 
L 81 9 
M 12 84 
L 84 12 
M 15 87 
L 87 15 
M 18 90 
L 90 18 
M 21 93 
L 93 21 
M 24 96 
L 96 24 
M 27 99 
L 99 27 
M 30 102 
L 102 30 
M 33 105 
L 105 33 
M 36 108 
L 108 36 
" style="fill: #000000; stroke: #000000; stroke-width: 1.0; stroke-linecap: butt; stroke-linejoin: miter"/>
  </pattern>
 </defs>
</svg>
